<svg xmlns="http://www.w3.org/2000/svg" width="1024" height="1024" viewBox="0 0 256 256"><title>小铺</title><desc>珊瑚红条纹雨棚、瓷白店面、青色玻璃橱窗与黄铜门把手。</desc><defs>
  <linearGradient id="porcelain" x1="0" y1="0" x2="0.25" y2="1"><stop offset="0" stop-color="#fffef7"/><stop offset="0.45" stop-color="#eee9da"/><stop offset="1" stop-color="#c6cabb"/></linearGradient>
  <linearGradient id="side" x1="0" y1="0" x2="0.25" y2="1"><stop offset="0" stop-color="#bfc7bc"/><stop offset="1" stop-color="#879f94"/></linearGradient>
  <linearGradient id="trim" x1="0" y1="0" x2="0.25" y2="1"><stop offset="0" stop-color="#fffef4"/><stop offset="0.42" stop-color="#eae6d5"/><stop offset="0.7" stop-color="#b8b9a7"/><stop offset="1" stop-color="#fcf9ed"/></linearGradient>
  <linearGradient id="roof" x1="0" y1="0" x2="0.25" y2="1"><stop offset="0" stop-color="#ffb2a0"/><stop offset="0.12" stop-color="#f78774"/><stop offset="0.48" stop-color="#e76551"/><stop offset="1" stop-color="#a63831"/></linearGradient>
  <linearGradient id="coral" x1="0" y1="0" x2="0.25" y2="1"><stop offset="0" stop-color="#ef8d78"/><stop offset="0.25" stop-color="#ffb9a0"/><stop offset="0.72" stop-color="#f47961"/><stop offset="1" stop-color="#c64d41"/></linearGradient>
  <linearGradient id="linen" x1="0" y1="0" x2="0.25" y2="1"><stop offset="0" stop-color="#e5d4b8"/><stop offset="0.25" stop-color="#fffbe8"/><stop offset="0.74" stop-color="#fff2d3"/><stop offset="1" stop-color="#d7bda0"/></linearGradient>
  <linearGradient id="coralHem" x1="0" y1="0" x2="0.25" y2="1"><stop offset="0" stop-color="#ec8068"/><stop offset="0.38" stop-color="#ed7c66"/><stop offset="1" stop-color="#b8463d"/></linearGradient>
  <linearGradient id="linenHem" x1="0" y1="0" x2="0.25" y2="1"><stop offset="0" stop-color="#fff4dc"/><stop offset="0.42" stop-color="#f7e8cc"/><stop offset="1" stop-color="#c5af91"/></linearGradient>
  <linearGradient id="frame" x1="0" y1="0" x2="0.25" y2="1"><stop offset="0" stop-color="#5c9d97"/><stop offset="0.5" stop-color="#31716e"/><stop offset="1" stop-color="#194d4e"/></linearGradient>
  <linearGradient id="glass" x1="0" y1="0" x2="0.25" y2="1"><stop offset="0" stop-color="#c5f3eb"/><stop offset="0.28" stop-color="#7acbc5"/><stop offset="0.62" stop-color="#499e9e"/><stop offset="1" stop-color="#20656e"/></linearGradient>
  <linearGradient id="doorGlass" x1="0" y1="0" x2="0.25" y2="1"><stop offset="0" stop-color="#8bd4ce"/><stop offset="0.5" stop-color="#3d9292"/><stop offset="1" stop-color="#174e59"/></linearGradient>
  <linearGradient id="stone" x1="0" y1="0" x2="0.25" y2="1"><stop offset="0" stop-color="#f9f6e9"/><stop offset="0.25" stop-color="#f1eddf"/><stop offset="0.3" stop-color="#b5b6a9"/><stop offset="1" stop-color="#8e9e94"/></linearGradient>
  <linearGradient id="brass" x1="0" y1="0" x2="1" y2=".25"><stop offset="0" stop-color="#fff5c6"/><stop offset="0.28" stop-color="#ead596"/><stop offset="0.6" stop-color="#b18b46"/><stop offset="0.8" stop-color="#f6dfa0"/><stop offset="1" stop-color="#a7864c"/></linearGradient>
  <linearGradient id="reflection" x1="0" y1="0" x2="1" y2="1"><stop stop-color="#fff" stop-opacity=".66"/><stop offset="1" stop-color="#e5fffa" stop-opacity="0"/></linearGradient>
  <filter id="shadow" x="-25%" y="-25%" width="150%" height="160%" color-interpolation-filters="sRGB"><feDropShadow dx="0" dy="3" stdDeviation="2.6" flood-color="#223b34" flood-opacity=".26"/></filter>
  <filter id="canopyShadow" x="-20%" y="-30%" width="140%" height="190%" color-interpolation-filters="sRGB"><feDropShadow dx="0" dy="3" stdDeviation="2" flood-color="#5a2920" flood-opacity=".32"/></filter>
  <clipPath id="awning"><path d="M45 58Q46 53 52 53H204Q210 53 212 59L233 102H23Z"/></clipPath>
  <clipPath id="window"><rect x="51" y="132" width="87" height="62" rx="3"/></clipPath>
  <clipPath id="door"><rect x="158" y="132" width="35" height="75" rx="2"/></clipPath>
</defs><g transform="translate(2.098361 -5.893443) scale(0.983607)">
  <g filter="url(#shadow)">
    <!-- Porcelain facade with a visible right edge and inset glass, not a tile. -->
    <path d="M46 78H205q9 0 9 10v131H46Z" fill="url(#side)"/>
    <rect x="35" y="79" width="173" height="140" rx="8" fill="url(#porcelain)" stroke="#fffced" stroke-width="1.3"/>
    <path d="M206 91v125" stroke="#889b8f" stroke-width="2" opacity=".55"/>
    <rect x="43" y="124" width="103" height="78" rx="6" fill="#fdf9e9"/>
    <rect x="47" y="128" width="95" height="70" rx="4" fill="url(#frame)"/>
    <rect x="51" y="132" width="87" height="62" rx="3" fill="url(#glass)"/>
    <g clip-path="url(#window)">
      <path d="M38 178 83 132h37l-71 71Z" fill="url(#reflection)"/>
      <path d="m79 198 58-66h9l-60 66Z" fill="#d8fff4" opacity=".18"/>
      <path d="M51 182c20-5 47-5 87 1v11H51Z" fill="#164e51" opacity=".28"/>
      <!-- Small parcels behind the glass; the canopy remains the primary silhouette. -->
      <rect x="63" y="177" width="22" height="17" rx="2" fill="#efc493"/>
      <path d="M74 177v17" stroke="#fae2b8" stroke-width="3"/>
      <rect x="101" y="170" width="23" height="24" rx="2" fill="#f8e5c1"/>
      <path d="M111 170v24" stroke="#d8b384" stroke-width="3"/>
      <path d="M52 134h84" stroke="#e3fff7" stroke-opacity=".6"/>
    </g>
    <path d="M94 130v65" stroke="#276765" stroke-width="3"/>
    <path d="M95.2 131v63" stroke="#b8e2d5" stroke-width=".8" opacity=".7"/>
    <rect x="43" y="198" width="102" height="6" rx="2" fill="url(#trim)"/>
    <rect x="151" y="125" width="49" height="90" rx="5" fill="#fffced"/>
    <rect x="154" y="128" width="43" height="87" rx="3" fill="url(#frame)"/>
    <rect x="158" y="132" width="35" height="75" rx="2" fill="url(#doorGlass)"/>
    <g clip-path="url(#door)"><path d="m150 178 44-47h13l-54 65Z" fill="url(#reflection)"/><path d="M159 134h33" stroke="#cffff0" stroke-opacity=".55"/></g>
    <path d="M157 208h37v6h-37Z" fill="#3c7370"/>
    <path d="M161 212h29" stroke="#93b4a6" stroke-width="1"/>
    <rect x="181" y="174" width="5" height="19" rx="2.5" fill="#1c5353" opacity=".55"/>
    <rect x="180" y="172" width="4" height="18" rx="2" fill="url(#brass)"/>
    <path d="M181 175v12" stroke="#fff3c4" stroke-width=".8"/>
    <!-- Enamel roof cap, bevel highlights and projecting fabric canopy. -->
    <rect x="43" y="38" width="170" height="28" rx="10" fill="url(#roof)"/>
    <path d="M47 48q0-7 8-7h146q7 0 8 7" fill="none" stroke="#ffd5bd" stroke-width="1.6" stroke-opacity=".85"/>
    <path d="M47 62h161" stroke="#9d3e36" stroke-opacity=".45" stroke-width="2"/>
    <g filter="url(#canopyShadow)">
      <path d="M23 102h210l-21-44q-2-5-8-5H52q-6 0-7 5Z" fill="url(#coral)"/>
      <path d="M45 53H68.71428571428572L53 103H23Z" fill="url(#coral)"/>
    <path d="M23 102h30v10c0 17-30 17-30 0Z" fill="url(#coralHem)"/>
    <path d="M25 113c2 10 24 10 26 0" fill="none" stroke="#ffc6ac" stroke-opacity=".45" stroke-width=".8"/><path d="M68.71428571428572 53H92.42857142857144L83 103H53Z" fill="url(#linen)"/>
    <path d="M53 102h30v10c0 17-30 17-30 0Z" fill="url(#linenHem)"/>
    <path d="M55 113c2 10 24 10 26 0" fill="none" stroke="#fff7e3" stroke-opacity=".45" stroke-width=".8"/><path d="M92.42857142857143 53H116.14285714285714L113 103H83Z" fill="url(#coral)"/>
    <path d="M83 102h30v10c0 17-30 17-30 0Z" fill="url(#coralHem)"/>
    <path d="M85 113c2 10 24 10 26 0" fill="none" stroke="#ffc6ac" stroke-opacity=".45" stroke-width=".8"/><path d="M116.14285714285714 53H139.85714285714286L143 103H113Z" fill="url(#linen)"/>
    <path d="M113 102h30v10c0 17-30 17-30 0Z" fill="url(#linenHem)"/>
    <path d="M115 113c2 10 24 10 26 0" fill="none" stroke="#fff7e3" stroke-opacity=".45" stroke-width=".8"/><path d="M139.85714285714286 53H163.57142857142858L173 103H143Z" fill="url(#coral)"/>
    <path d="M143 102h30v10c0 17-30 17-30 0Z" fill="url(#coralHem)"/>
    <path d="M145 113c2 10 24 10 26 0" fill="none" stroke="#ffc6ac" stroke-opacity=".45" stroke-width=".8"/><path d="M163.57142857142856 53H187.28571428571428L203 103H173Z" fill="url(#linen)"/>
    <path d="M173 102h30v10c0 17-30 17-30 0Z" fill="url(#linenHem)"/>
    <path d="M175 113c2 10 24 10 26 0" fill="none" stroke="#fff7e3" stroke-opacity=".45" stroke-width=".8"/><path d="M187.28571428571428 53H211L233 103H203Z" fill="url(#coral)"/>
    <path d="M203 102h30v10c0 17-30 17-30 0Z" fill="url(#coralHem)"/>
    <path d="M205 113c2 10 24 10 26 0" fill="none" stroke="#ffc6ac" stroke-opacity=".45" stroke-width=".8"/>
      <path d="M46 56h164" stroke="#ffe1c6" stroke-opacity=".65" stroke-width="1.2"/>
      <path d="M25 102h206" stroke="#fff1d6" stroke-opacity=".5" stroke-width="1"/>
    </g>
    <path d="M35 218h173l10 4H26Z" fill="#fffbea"/>
    <rect x="25" y="222" width="194" height="9" rx="3" fill="url(#stone)"/>
    <path d="M30 223h184" stroke="#fffcf2" stroke-width="1"/>
  </g>
</g></svg>