<svg xmlns="http://www.w3.org/2000/svg" width="512" height="512" viewBox="0 0 256 256"><defs><linearGradient id="tile" x1="0" y1="0" x2=".3" y2="1"><stop stop-color="#dacffc"/><stop offset="1" stop-color="#947bc4"/></linearGradient><linearGradient id="badge" x1="0" y1="0" x2=".3" y2="1"><stop stop-color="#fffdf7"/><stop offset="1" stop-color="#e2dce8"/></linearGradient><linearGradient id="gold" x1="0" y1="0" x2=".3" y2="1"><stop stop-color="#ffe6a2"/><stop offset="1" stop-color="#c39639"/></linearGradient><linearGradient id="rim" x2="0" y2="1"><stop stop-color="white" stop-opacity=".75"/><stop offset=".45" stop-color="white" stop-opacity=".12"/><stop offset="1" stop-color="#183044" stop-opacity=".25"/></linearGradient><filter id="drop" x="-.2" y="-.2" width="1.4" height="1.5"><feDropShadow dy="3" stdDeviation="2" flood-color="#12273e" flood-opacity=".3"/></filter><filter id="object" x="-.3" y="-.3" width="1.6" height="1.7"><feDropShadow dy="3" stdDeviation="2.5" flood-color="#19324e" flood-opacity=".25"/></filter></defs><rect x="23" y="23" width="210" height="210" rx="48" fill="url(#tile)" filter="url(#drop)"/><rect x="24" y="24" width="208" height="208" rx="47" fill="none" stroke="url(#rim)" stroke-width="2"/>
    <g filter="url(#object)">
      <rect x="65" y="69" width="126" height="126" rx="15" fill="url(#badge)" stroke="#fff" stroke-width="1.5"/>
      <rect x="65" y="68" width="126" height="27" rx="13" fill="#7c6da1"/>
      <path d="M92 56v25M164 56v25" stroke="#d6deed" stroke-width="9" stroke-linecap="round"/>
      <path d="m116 152-8 42 19-11 18 11-7-42" fill="#9880be"/>
      <circle cx="127" cy="132" r="30" fill="url(#gold)" stroke="#fff0c5" stroke-width="2"/>
      <path d="m127 114 6 12 14 2-10 10 2 14-12-6-13 6 3-14-10-10 14-2Z" fill="#fff9df"/>
    </g></svg>