<svg xmlns="http://www.w3.org/2000/svg" width="2560" height="1600" viewBox="0 0 2560 1600"><defs><linearGradient id="sky" x2=".3" y2="1"><stop stop-color="#0a192f"/><stop offset="1" stop-color="#253c65"/></linearGradient><linearGradient id="flow" x1="0" y1="0" x2="1" y2=".7"><stop stop-color="#1e4964"/><stop offset="1" stop-color="#253c65"/></linearGradient><filter id="blur"><feGaussianBlur stdDeviation="55"/></filter></defs><rect width="2560" height="1600" fill="url(#sky)"/><ellipse cx="690" cy="230" rx="900" ry="580" fill="#0a192f" opacity=".5" filter="url(#blur)"/><path d="M-100 1260C590 1650 850 350 1590 660s750 650 1100 300v800H-100Z" fill="url(#flow)"/><path d="M-100 1360C730 1610 920 570 1530 750s1000 470 1190 220" fill="none" stroke="#0a192f" stroke-width="2" opacity=".4"/><path d="M-100 1510C760 1610 1030 870 1630 910s750 290 1110 200v550H-100Z" fill="#253c65" opacity=".48"/><path d="M-100 1470C790 1690 1040 810 1640 850s870 410 1100 230" fill="none" stroke="#0a192f" stroke-width="1.5" opacity=".28"/></svg>